<?xml version="1.0" encoding="UTF-8"?>
<!DOCTYPE svg PUBLIC "-//W3C//DTD SVG 1.1//EN" "http://www.w3.org/Graphics/SVG/1.1/DTD/svg11.dtd">
<!-- Creator: CorelDRAW 2020 (64-Bit) -->
<svg xmlns="http://www.w3.org/2000/svg" xml:space="preserve" width="3.66666in" height="3.66666in" version="1.1" style="shape-rendering:geometricPrecision; text-rendering:geometricPrecision; image-rendering:optimizeQuality; fill-rule:evenodd; clip-rule:evenodd"
viewBox="0 0 3666.66 3666.66"
 xmlns:xlink="http://www.w3.org/1999/xlink"
 xmlns:xodm="http://www.corel.com/coreldraw/odm/2003">
 <defs>
  <style type="text/css">
   <![CDATA[
    .fil0 {fill:#999999}
    .fil4 {fill:#E6E6E6}
    .fil3 {fill:#E6E6E6}
    .fil2 {fill:#FF8500}
    .fil1 {fill:#FF8500}
   ]]>
  </style>
     <clipPath id="id0">
      <path d="M122.15 1111.5l-6.72 1533.89c-0.59,133.52 108.17,243.34 241.7,244.04l1123.37 5.91c133.52,0.7 243.24,-107.96 243.83,-241.48l6.72 -1533.89c0.59,-133.52 -108.18,-243.34 -241.7,-244.04l-1123.37 -5.91c-133.52,-0.7 -243.24,107.96 -243.82,241.48z"/>
     </clipPath>
     <clipPath id="id1">
      <path d="M385.73 885.96l-8.03 1833.65c-0.7,159.61 129.31,290.89 288.93,291.73l1342.9 7.07c159.61,0.84 290.77,-129.06 291.47,-288.68l8.03 -1833.64c0.7,-159.61 -129.31,-290.89 -288.93,-291.73l-1342.9 -7.07c-159.61,-0.84 -290.77,129.06 -291.47,288.67z"/>
     </clipPath>
     <clipPath id="id2">
      <path d="M701.94 738.1l-9.55 2178.43c-0.83,189.63 153.63,345.58 343.26,346.58l1595.41 8.4c189.62,1 345.45,-153.33 346.28,-342.96l9.54 -2178.43c0.83,-189.63 -153.63,-345.59 -343.26,-346.59l-1595.41 -8.4c-189.62,-1 -345.44,153.33 -346.28,342.95z"/>
     </clipPath>
     <clipPath id="id3">
      <path d="M1425.99 205.87l1748.96 12.97c207.88,1.54 377.2,172.88 376.28,380.76l-11.01 2486.04c-0.92,207.88 -171.75,376.7 -379.63,375.16l-1748.96 -12.97c-207.88,-1.54 -377.2,-172.88 -376.28,-380.76l11.01 -2486.04c0.92,-207.88 171.75,-376.7 379.62,-375.15z"/>
     </clipPath>
 </defs>
 <g id="Layer_x0020_1">
  <metadata id="CorelCorpID_0Corel-Layer"/>
  <g id="_1620185850512">
   <rect class="fil0" transform="matrix(-0.00342032 0.780681 0.621979 0.00327473 123.215 868.734)" width="2586.74" height="2586.74" rx="390.31" ry="390.31"/>
   <g>
    <g style="clip-path:url(#id0)">
     <image x="115.43" y="870.01" width="1615.62" height="2025.34" xlink:href="TaskItLogo_Images\TaskItLogo_ImgID1.png"/>
    </g>
   </g>
   <rect class="fil1" transform="matrix(-0.00408871 0.93324 0.743525 0.00391467 386.999 595.764)" width="2586.74" height="2586.74" rx="390.31" ry="390.31"/>
   <g>
    <g style="clip-path:url(#id1)">
     <image x="377.69" y="597.29" width="1931.34" height="2421.13" xlink:href="TaskItLogo_Images\TaskItLogo_ImgID2.png"/>
    </g>
   </g>
   <rect class="fil0" transform="matrix(-0.00485752 1.10872 0.883332 0.00465075 703.452 393.332)" width="2586.74" height="2586.74" rx="390.31" ry="390.31"/>
   <g>
    <g style="clip-path:url(#id2)">
     <image x="692.39" y="395.14" width="2294.5" height="2876.38" xlink:href="TaskItLogo_Images\TaskItLogo_ImgID3.png"/>
    </g>
   </g>
   <rect class="fil2" transform="matrix(0.968348 0.00718121 -0.00554848 1.2533 1048.04 203.063)" width="2586.74" height="2586.74" rx="390.31" ry="390.31"/>
   <g>
    <g style="clip-path:url(#id3)">
     <image x="1035.36" y="205.86" width="2515.88" height="3254.95" xlink:href="TaskItLogo_Images\TaskItLogo_ImgID4.png"/>
    </g>
   </g>
   <path class="fil3" d="M1452.03 679.36c80.22,0 145.26,65.03 145.26,145.26 0,80.22 -65.04,145.25 -145.26,145.25 -80.22,0 -145.26,-65.03 -145.26,-145.25 0,-80.22 65.04,-145.26 145.26,-145.26zm431.72 0l1254.85 0c77.67,0 141.22,63.55 141.22,141.22l0 0c0,77.67 -63.55,141.22 -141.22,141.22l-1254.85 0c-77.67,0 -141.22,-63.54 -141.22,-141.22l0 -0c0,-77.67 63.55,-141.22 141.22,-141.22z"/>
   <g>
    <path class="fil4" d="M1452.03 1351.84c80.22,0 145.26,65.03 145.26,145.25 0,80.22 -65.03,145.26 -145.26,145.26 -80.22,0 -145.25,-65.03 -145.25,-145.26 0,-80.22 65.03,-145.25 145.25,-145.25zm431.74 0c418.28,0 836.56,0 1254.83,0 77.68,0 141.22,63.54 141.22,141.22 0,0 0,0 0,0 0,77.67 -63.54,141.22 -141.22,141.22 -418.28,0 -836.56,0 -1254.83,0 -77.68,0 -141.22,-63.55 -141.22,-141.22 0,0 0,0 0,0 0,-77.68 63.54,-141.22 141.22,-141.22z"/>
    <path class="fil4" d="M1452.03 2024.32c80.22,0 145.26,65.03 145.26,145.25 0,80.23 -65.03,145.26 -145.26,145.26 -80.22,0 -145.25,-65.03 -145.25,-145.26 0,-80.22 65.03,-145.25 145.25,-145.25zm431.74 0c418.28,0 836.56,0 1254.83,0 77.68,0 141.22,63.54 141.22,141.21 0,0.01 0,0.01 0,0.01 0,77.67 -63.54,141.22 -141.22,141.22 -418.28,0 -836.56,0 -1254.83,0 -77.68,0 -141.22,-63.55 -141.22,-141.22 0,0 0,0 0,-0.01 0,-77.67 63.54,-141.21 141.22,-141.21z"/>
   </g>
   <path class="fil3" d="M1452.03 2696.79c80.22,0 145.26,65.04 145.26,145.26 0,80.22 -65.04,145.26 -145.26,145.26 -80.22,0 -145.26,-65.04 -145.26,-145.26 0,-80.22 65.04,-145.26 145.26,-145.26zm431.72 0l1254.85 0c77.67,0 141.22,63.55 141.22,141.22l0 0c0,77.67 -63.55,141.22 -141.22,141.22l-1254.85 0c-77.67,0 -141.22,-63.55 -141.22,-141.22l0 -0c0,-77.67 63.55,-141.22 141.22,-141.22z"/>
  </g>
 </g>
</svg>
